<svg width="160" height="70" viewBox="0 0 160 70" fill="none" xmlns="http://www.w3.org/2000/svg">
<rect width="160" height="70" fill="white"/>
<path d="M27.44 50.68C25.36 50.68 24.32 49.7867 24.32 48C24.32 47.4133 24.4 46.7467 24.56 46C24.7467 45.2267 25 44.24 25.32 43.04C25.6933 41.7867 25.9733 40.72 26.16 39.84C26.3467 38.96 26.44 38.1733 26.44 37.48C26.44 35.6667 25.64 34.76 24.04 34.76C23.6133 34.76 23.1733 34.8133 22.72 34.92L19.52 50H13.76L19.2 24.56L25.12 23.76L23.16 33H23.48C24.52 33 25.48 32.64 26.36 31.92C27.24 31.2 27.92 30.3067 28.4 29.24C28.9067 28.1467 29.16 27.08 29.16 26.04C29.16 24.8133 28.7867 23.8133 28.04 23.04C27.32 22.24 26.2267 21.84 24.76 21.84C22.6 21.84 20.7067 22.2267 19.08 23C17.4533 23.7733 16.1867 24.8933 15.28 26.36C14.4 27.8267 13.96 29.56 13.96 31.56C13.96 32.5467 14.0533 33.24 14.24 33.64C14.4267 34.0133 14.52 34.2267 14.52 34.28C13.08 34.28 12 33.9867 11.28 33.4C10.5867 32.7867 10.24 31.7867 10.24 30.4C10.24 28.6933 10.9333 27.04 12.32 25.44C13.7333 23.8133 15.5333 22.5067 17.72 21.52C19.9067 20.5067 22.0933 20 24.28 20C26.28 20 27.96 20.2933 29.32 20.88C30.68 21.4667 31.6933 22.2533 32.36 23.24C33.0267 24.2 33.36 25.2533 33.36 26.4C33.36 27.6533 32.9733 28.9067 32.2 30.16C31.4267 31.4133 30.3733 32.44 29.04 33.24C30.0533 33.5333 30.76 34.0267 31.16 34.72C31.5867 35.3867 31.8 36.2267 31.8 37.24C31.8 38.0133 31.7067 38.84 31.52 39.72C31.3333 40.5733 31.0667 41.64 30.72 42.92C30.5067 43.7467 30.3067 44.56 30.12 45.36C29.9333 46.16 29.84 46.8267 29.84 47.36C29.84 47.9733 29.9733 48.52 30.24 49C30.5333 49.48 30.92 49.8133 31.4 50C29.7733 50.4533 28.4533 50.68 27.44 50.68ZM43.5434 50.64C40.5301 50.64 38.3168 49.88 36.9034 48.36C35.4901 46.84 34.7834 44.32 34.7834 40.8C34.7834 38 35.2501 34.9867 36.1834 31.76C37.1434 28.5333 38.6634 25.7733 40.7434 23.48C42.8501 21.16 45.5168 20 48.7434 20C50.7434 20 52.3568 20.44 53.5834 21.32C54.8101 22.2 55.4234 23.5467 55.4234 25.36C55.4234 26.5067 55.1968 27.4133 54.7434 28.08C54.2901 28.72 53.5834 29.04 52.6234 29.04C51.6634 29.04 50.9034 28.6933 50.3434 28C50.8234 27.76 51.2501 27.28 51.6234 26.56C51.9968 25.84 52.1834 25.0933 52.1834 24.32C52.1834 23.6 51.9834 23.0133 51.5834 22.56C51.2101 22.1067 50.5968 21.88 49.7434 21.88C48.3301 21.88 46.9834 22.8533 45.7034 24.8C44.4234 26.72 43.3834 29.1467 42.5834 32.08C41.8101 35.0133 41.4234 37.84 41.4234 40.56C41.4234 42.5867 41.7701 44.1333 42.4634 45.2C43.1568 46.2667 44.4101 46.8 46.2234 46.8C47.7968 46.8 49.2501 46.4533 50.5834 45.76C51.9168 45.0667 53.0634 44.08 54.0234 42.8L54.9434 43.2C54.2768 44.88 53.2901 46.28 51.9834 47.4C50.6768 48.52 49.2768 49.3467 47.7834 49.88C46.2901 50.3867 44.8768 50.64 43.5434 50.64ZM65.8663 23.52H65.3863C63.0129 23.52 61.1596 24.12 59.8263 25.32C58.5196 26.4933 57.8663 28.5867 57.8663 31.6C57.8663 32.5867 57.9596 33.28 58.1463 33.68C58.3329 34.0533 58.4263 34.2667 58.4263 34.32C56.9863 34.32 55.9063 34.0267 55.1863 33.44C54.4929 32.8267 54.1463 31.8267 54.1463 30.44C54.1463 28.5467 54.6129 26.8267 55.5463 25.28C56.4796 23.7067 57.9596 22.44 59.9863 21.48C62.0396 20.52 64.6396 20.04 67.7863 20.04C69.5463 20.04 71.4396 20.2 73.4663 20.52C75.1729 20.8133 76.6929 20.96 78.0263 20.96C79.7329 20.96 81.2796 20.68 82.6663 20.12C82.6129 21.8533 82.1729 23.1333 81.3463 23.96C80.5196 24.7867 79.2929 25.2 77.6663 25.2C76.8129 25.2 75.9596 25.1333 75.1063 25C74.2529 24.8667 73.0396 24.64 71.4663 24.32L65.9463 50H60.1863L65.8663 23.52ZM85.7959 50.24C84.5159 50.24 83.4759 49.84 82.6759 49.04C81.9026 48.24 81.5159 47.04 81.5159 45.44C81.5159 44.7733 81.6226 43.9067 81.8359 42.84L86.1159 22.8L92.0359 22L87.4359 43.6C87.3293 44 87.2759 44.4267 87.2759 44.88C87.2759 45.4133 87.3959 45.8 87.6359 46.04C87.9026 46.2533 88.3293 46.36 88.9159 46.36C89.6893 46.36 90.4093 46.04 91.0759 45.4C91.7426 44.7333 92.2226 43.88 92.5159 42.84H94.1959C93.2093 45.72 91.9426 47.68 90.3959 48.72C88.8493 49.7333 87.3159 50.24 85.7959 50.24ZM98.34 50.16C96.3667 50.16 94.8067 49.6533 93.66 48.64C92.5133 47.6267 91.94 46.0267 91.94 43.84C91.94 42.0267 92.3133 40.0133 93.06 37.8C93.8067 35.5867 95.0067 33.68 96.66 32.08C98.3133 30.4533 100.393 29.64 102.9 29.64C106.313 29.64 108.02 31.7733 108.02 36.04V36.08C108.1 36.1067 108.247 36.12 108.46 36.12C109.34 36.12 110.353 35.8933 111.5 35.44C112.647 34.96 113.687 34.3867 114.62 33.72L114.98 34.8C114.207 35.6267 113.193 36.3333 111.94 36.92C110.713 37.48 109.367 37.88 107.9 38.12C107.687 40.5467 107.14 42.6667 106.26 44.48C105.38 46.2933 104.247 47.6933 102.86 48.68C101.473 49.6667 99.9667 50.16 98.34 50.16ZM99.94 46.56C100.58 46.56 101.22 46.2 101.86 45.48C102.5 44.7333 103.06 43.7333 103.54 42.48C104.02 41.2 104.367 39.7867 104.58 38.24C103.86 38.08 103.5 37.52 103.5 36.56C103.5 35.4667 103.913 34.7467 104.74 34.4C104.687 33.52 104.553 32.92 104.34 32.6C104.127 32.2533 103.753 32.08 103.22 32.08C102.34 32.08 101.487 32.72 100.66 34C99.8333 35.28 99.1667 36.8133 98.66 38.6C98.1533 40.3867 97.9 41.96 97.9 43.32C97.9 44.6 98.0467 45.4667 98.34 45.92C98.6333 46.3467 99.1667 46.56 99.94 46.56ZM117.158 60C115.878 60 114.811 59.6667 113.958 59C113.105 58.3333 112.678 57.3733 112.678 56.12C112.678 54.6 113.291 53.3733 114.518 52.44C115.745 51.5333 117.305 50.7733 119.198 50.16L119.678 48.04C118.318 49.5067 116.718 50.24 114.878 50.24C113.358 50.24 112.091 49.72 111.078 48.68C110.065 47.64 109.558 46.0133 109.558 43.8C109.558 41.8267 109.945 39.76 110.718 37.6C111.518 35.4133 112.691 33.5733 114.238 32.08C115.811 30.56 117.678 29.8 119.838 29.8C120.931 29.8 121.745 29.9867 122.278 30.36C122.811 30.7333 123.078 31.2267 123.078 31.84V32.08L123.518 30H129.278L125.318 48.56C126.598 48.1333 127.625 47.4933 128.398 46.64C129.171 45.7867 129.825 44.52 130.358 42.84H132.038C131.318 45.2133 130.345 46.96 129.118 48.08C127.891 49.1733 126.505 49.92 124.958 50.32L124.358 53.2C123.825 55.7867 122.905 57.56 121.598 58.52C120.291 59.5067 118.811 60 117.158 60ZM117.478 46.36C118.091 46.36 118.718 46.08 119.358 45.52C119.998 44.96 120.438 44.2 120.678 43.24L122.718 33.76C122.718 33.44 122.585 33.12 122.318 32.8C122.051 32.4533 121.638 32.28 121.078 32.28C120.011 32.28 119.051 32.9067 118.198 34.16C117.345 35.3867 116.678 36.88 116.198 38.64C115.718 40.3733 115.478 41.9067 115.478 43.24C115.478 44.5733 115.665 45.4267 116.038 45.8C116.438 46.1733 116.918 46.36 117.478 46.36ZM116.238 56.88C116.691 56.88 117.131 56.5733 117.558 55.96C117.985 55.3467 118.318 54.4667 118.558 53.32L118.798 52.16C116.185 53.12 114.878 54.2533 114.878 55.56C114.878 55.9067 114.998 56.2133 115.238 56.48C115.478 56.7467 115.811 56.88 116.238 56.88ZM136.192 50.16C134.218 50.16 132.658 49.6533 131.512 48.64C130.365 47.6267 129.792 46.0267 129.792 43.84C129.792 42 130.152 39.9867 130.872 37.8C131.592 35.5867 132.765 33.68 134.392 32.08C136.018 30.4533 138.098 29.64 140.632 29.64C143.778 29.64 145.472 31.44 145.712 35.04C146.298 34.9067 146.818 34.5867 147.272 34.08C147.725 33.5467 148.152 32.9467 148.552 32.28H149.832C149.112 33.72 148.472 34.8533 147.912 35.68C147.352 36.48 146.618 37.1333 145.712 37.64C145.552 40.1467 145.032 42.3467 144.152 44.24C143.298 46.1333 142.178 47.6 140.792 48.64C139.405 49.6533 137.872 50.16 136.192 50.16ZM137.792 46.56C138.778 46.56 139.698 45.76 140.552 44.16C141.405 42.56 141.992 40.5867 142.312 38.24C141.672 38 141.352 37.4 141.352 36.44C141.352 35.4 141.725 34.7067 142.472 34.36C142.418 33.5067 142.272 32.92 142.032 32.6C141.818 32.2533 141.458 32.08 140.952 32.08C140.072 32.08 139.232 32.72 138.432 34C137.632 35.2533 136.978 36.7867 136.472 38.6C135.992 40.3867 135.752 41.96 135.752 43.32C135.752 44.6 135.898 45.4667 136.192 45.92C136.485 46.3467 137.018 46.56 137.792 46.56Z" fill="black"/>
</svg>
