<svg width="200" height="79" viewBox="0 0 200 79" fill="none" xmlns="http://www.w3.org/2000/svg">
<path d="M71.3686 36.959C71.3686 35.2896 71.7859 33.5941 72.6206 31.8726C73.4553 30.151 74.916 28.5599 77.0028 27.0992C79.0895 25.6384 81.6197 24.9342 84.5932 24.9863C87.8277 24.9863 90.1753 25.6906 91.636 27.0992C93.0967 28.5077 93.8531 30.0727 93.9053 31.7943C93.9053 33.4637 93.4619 34.6896 92.575 35.4722C91.6881 36.2547 90.6969 36.672 89.6014 36.7242C88.9232 36.7242 88.2972 36.5155 87.7233 36.0982C87.1495 35.6808 86.8365 35.0026 86.7843 34.0636C86.7843 33.2289 87.0191 32.4986 87.4886 31.8726C87.9581 31.2465 88.4015 30.777 88.8189 30.464C89.2362 30.151 89.5753 29.9945 89.8362 29.9945C89.8883 29.9945 89.9144 29.9684 89.9144 29.9162C89.9144 29.7597 89.7318 29.525 89.3666 29.212C89.0015 28.899 88.3494 28.612 87.4103 28.3512C86.4713 28.0903 85.454 27.9338 84.3585 27.8817C81.8544 27.8817 80.0285 28.5599 78.8808 29.9162C77.7331 31.2726 77.1332 32.6551 77.081 34.0636C77.081 35.3678 77.5766 36.2808 78.5678 36.8025C79.559 37.3241 80.9936 37.7676 82.8717 38.1327C84.7498 38.4979 86.1061 38.8892 86.9408 39.3065C90.3839 40.8194 92.1055 43.3235 92.1055 46.8188C92.1055 48.2795 91.8186 49.7402 91.2447 51.2009C90.6709 52.6616 89.8101 54.1223 88.6624 55.583C87.5147 57.0438 85.8714 58.1915 83.7325 59.0262C81.5936 59.8608 79.1417 60.3043 76.3767 60.3564C72.3598 60.3564 69.5166 59.6 67.8472 58.0871C66.1778 56.5742 65.3171 54.8005 65.2649 52.766C65.2649 50.7314 65.8127 49.2707 66.9082 48.3838C68.0037 47.497 69.1514 47.0535 70.3513 47.0535C71.1338 47.0535 71.8642 47.2883 72.5424 47.7578C73.2206 48.2273 73.5857 49.0359 73.6379 50.1836C73.6379 51.54 73.1684 52.6877 72.2294 53.6267C71.2903 54.5658 70.4817 55.0353 69.8035 55.0353C69.6992 55.0874 69.6209 55.1135 69.5688 55.1135C69.5166 55.1135 69.4905 55.1657 69.4905 55.27C69.5427 55.4265 69.7514 55.6352 70.1165 55.8961C70.4817 56.1569 71.2903 56.496 72.5424 56.9133C73.7944 57.3307 75.229 57.5133 76.8463 57.4611C78.7243 57.4611 80.3415 57.1742 81.6979 56.6003C83.0543 56.0265 84.0455 55.2961 84.6715 54.4093C85.2975 53.5224 85.741 52.7138 86.0018 51.9834C86.2626 51.2531 86.3931 50.601 86.3931 50.0271C86.3931 48.5664 85.8453 47.4709 84.7498 46.7405C83.6542 46.0102 82.4022 45.5667 80.9936 45.4102C79.5851 45.2537 78.0461 44.8625 76.3767 44.2364C74.7074 43.6104 73.4814 42.6975 72.6989 41.4976C71.812 40.1934 71.3686 38.6805 71.3686 36.959Z" fill="black"/>
<path d="M110.764 36.0698C110.653 36.0698 110.506 36.0698 110.321 36.0698C109.399 36.0698 108.846 36.0514 108.661 36.0145C108.477 35.9776 108.385 35.7748 108.385 35.4059C108.385 34.4101 108.588 33.8015 108.993 33.5802C109.067 33.5433 110.856 33.5249 114.36 33.5249C117.2 33.5249 118.823 33.5249 119.228 33.5249C119.634 33.5249 119.892 33.6355 120.003 33.8568C127.785 52.1508 131.75 61.5375 131.898 62.017L134.885 50.2329C136.84 42.4506 137.818 38.3012 137.818 37.7849C137.818 36.789 136.637 36.2174 134.277 36.0698C133.392 36.0698 132.949 35.867 132.949 35.4613C132.949 35.3875 132.986 35.1662 133.06 34.7974C133.207 34.2072 133.318 33.8568 133.392 33.7462C133.465 33.6355 133.65 33.5618 133.945 33.5249C134.055 33.5249 134.627 33.5433 135.66 33.5802C136.693 33.6171 138.223 33.654 140.252 33.6909C142.096 33.6909 143.497 33.6724 144.456 33.6355C145.415 33.5987 145.969 33.5802 146.116 33.5802C146.669 33.5802 146.946 33.7646 146.946 34.1335C146.946 34.9449 146.799 35.4981 146.503 35.7932C146.43 35.9776 146.024 36.0698 145.286 36.0698C142.668 36.2174 141.026 36.955 140.362 38.2828L132.119 70.9243C132.045 71.1824 131.658 71.3115 130.957 71.3115C130.441 71.3115 130.127 71.2746 130.017 71.2009C129.906 71.0902 127.527 65.5025 122.88 54.4376L115.854 37.8955L112.258 52.2799C109.86 61.7219 108.661 66.6089 108.661 66.9409C108.846 68.158 110.174 68.7666 112.645 68.7666H113.198C113.419 68.951 113.53 69.0985 113.53 69.2092C113.53 69.3198 113.493 69.6702 113.419 70.2604C113.272 70.7398 113.087 71.0902 112.866 71.3115H112.147C111.004 71.2378 109.012 71.2009 106.172 71.2009C105.139 71.2009 104.199 71.2009 103.35 71.2009C102.502 71.2009 101.82 71.2009 101.303 71.2009C100.787 71.2009 100.473 71.2193 100.363 71.2562C99.8096 71.2562 99.533 71.0902 99.533 70.7583C99.533 70.6107 99.5883 70.3157 99.6989 69.8731C99.8096 69.4305 99.9018 69.1723 99.9756 69.0985C100.049 68.8772 100.473 68.7666 101.248 68.7666C103.756 68.6559 105.379 67.9367 106.117 66.6089C106.264 66.3876 107.573 61.2793 110.045 51.2841L113.807 36.2358C113.733 36.1989 112.719 36.1436 110.764 36.0698Z" fill="black"/>
<path d="M159.892 36.0698C159.781 36.0698 159.634 36.0698 159.449 36.0698C158.527 36.0698 157.974 36.0514 157.79 36.0145C157.605 35.9776 157.513 35.7748 157.513 35.4059C157.513 34.4101 157.716 33.8015 158.122 33.5802C158.195 33.5433 159.984 33.5249 163.488 33.5249C166.328 33.5249 167.951 33.5249 168.357 33.5249C168.762 33.5249 169.021 33.6355 169.131 33.8568C176.914 52.1508 180.878 61.5375 181.026 62.017L184.013 50.2329C185.968 42.4506 186.946 38.3012 186.946 37.7849C186.946 36.789 185.765 36.2174 183.405 36.0698C182.52 36.0698 182.077 35.867 182.077 35.4613C182.077 35.3875 182.114 35.1662 182.188 34.7974C182.335 34.2072 182.446 33.8568 182.52 33.7462C182.593 33.6355 182.778 33.5618 183.073 33.5249C183.184 33.5249 183.755 33.5433 184.788 33.5802C185.821 33.6171 187.351 33.654 189.38 33.6909C191.224 33.6909 192.626 33.6724 193.585 33.6355C194.544 33.5987 195.097 33.5802 195.244 33.5802C195.798 33.5802 196.074 33.7646 196.074 34.1335C196.074 34.9449 195.927 35.4981 195.632 35.7932C195.558 35.9776 195.152 36.0698 194.414 36.0698C191.796 36.2174 190.154 36.955 189.491 38.2828L181.247 70.9243C181.173 71.1824 180.786 71.3115 180.085 71.3115C179.569 71.3115 179.256 71.2746 179.145 71.2009C179.034 71.0902 176.655 65.5025 172.008 54.4376L164.982 37.8955L161.386 52.2799C158.988 61.7219 157.79 66.6089 157.79 66.9409C157.974 68.158 159.302 68.7666 161.773 68.7666H162.326C162.548 68.951 162.658 69.0985 162.658 69.2092C162.658 69.3198 162.621 69.6702 162.548 70.2604C162.4 70.7398 162.216 71.0902 161.994 71.3115H161.275C160.132 71.2378 158.14 71.2009 155.3 71.2009C154.267 71.2009 153.327 71.2009 152.479 71.2009C151.63 71.2009 150.948 71.2009 150.432 71.2009C149.915 71.2009 149.602 71.2193 149.491 71.2562C148.938 71.2562 148.661 71.0902 148.661 70.7583C148.661 70.6107 148.716 70.3157 148.827 69.8731C148.938 69.4305 149.03 69.1723 149.104 69.0985C149.177 68.8772 149.602 68.7666 150.376 68.7666C152.884 68.6559 154.507 67.9367 155.245 66.6089C155.392 66.3876 156.702 61.2793 159.173 51.2841L162.935 36.2358C162.861 36.1989 161.847 36.1436 159.892 36.0698Z" fill="black"/>
<path d="M1.80218 48.6813C1.48917 48.6813 1.12399 48.4726 0.706643 48.0553C0.289297 47.6379 0.0545396 47.2728 0.00237129 46.9598C-0.049797 46.6467 0.758812 45.8642 2.4282 44.6122C4.09758 43.3601 5.81914 42.0559 7.59286 40.6996C9.36658 39.3432 10.3578 38.5867 10.5665 38.4302C10.6708 38.3259 10.8012 38.2737 10.9577 38.2737H11.036C11.349 38.2737 11.7142 38.7172 12.1315 39.604C12.5488 40.4909 13.9574 43.5427 16.3571 48.7596C17.3483 51.0028 18.1569 52.8026 18.783 54.159L25.4344 68.6357C25.4866 68.6357 28.1993 63.0798 33.5727 51.9679C38.946 40.8561 44.3193 29.666 49.6927 18.3976C55.066 7.12925 57.857 1.36465 58.0657 1.10381C58.3787 0.373456 58.9004 0.00827765 59.6307 0.00827765C59.9959 0.00827765 60.3089 0.164783 60.5698 0.477792C60.8306 0.790802 61.0132 1.10381 61.1175 1.41682V1.88634L42.8847 39.6823L24.4954 77.713C24.2867 78.0782 23.7911 78.2607 23.0086 78.2607C22.5391 78.2607 22.2261 78.1825 22.0696 78.026C21.9652 77.9216 19.409 72.3918 14.4008 61.4365L6.88859 45.0034L5.63655 45.8642C4.85402 46.4902 4.04541 47.1163 3.21072 47.7423C2.37603 48.3683 1.90651 48.6813 1.80218 48.6813Z" fill="black"/>
<path d="M200 4.69531H61.1174V0.000164986H200V4.69531Z" fill="black"/>
</svg>
